<?xml version="1.0" standalone="no"?>
<!DOCTYPE svg PUBLIC "-//W3C//DTD SVG 20010904//EN"
 "http://www.w3.org/TR/2001/REC-SVG-20010904/DTD/svg10.dtd">
<svg version="1.0" xmlns="http://www.w3.org/2000/svg"
 width="900.000000pt" height="900.000000pt" viewBox="0 0 900.000000 900.000000"
 preserveAspectRatio="xMidYMid meet">
<metadata>
Created by potrace 1.16, written by Peter Selinger 2001-2019
</metadata>
<g transform="translate(0.000000,900.000000) scale(0.100000,-0.100000)"
fill="#000000" stroke="none">
<path d="M2438 7868 c-94 -8 -242 -56 -323 -105 -192 -113 -330 -289 -397
-505 l-23 -73 -3 -2655 -3 -2655 22 -94 c79 -350 384 -617 740 -650 52 -4
1001 -7 2109 -6 2207 2 2051 -2 2215 60 247 93 444 317 511 583 l24 95 0 2081
0 2081 -925 925 -925 925 -1473 0 c-809 0 -1507 -3 -1549 -7z m2624 -1400 l3
-843 765 -1 c421 0 800 -2 843 -2 l77 -2 0 -1843 c0 -2065 6 -1909 -73 -1994
-22 -24 -59 -54 -82 -66 l-40 -22 -2055 0 -2055 0 -40 22 c-23 12 -60 42 -82
66 -79 86 -73 -155 -73 2717 0 2873 -7 2631 73 2717 23 26 65 57 92 69 l50 24
1297 0 1298 0 2 -842z m1277 -273 c2 -3 -157 -5 -355 -5 l-359 0 1 353 c1 193
2 354 3 358 1 3 667 -658 710 -706z"/>
<path d="M3378 4493 c0 -5 -2 -131 -2 -280 l-1 -273 1125 0 1125 0 -1 258 c0
141 -1 267 -2 280 l-2 22 -1120 0 c-616 0 -1121 -3 -1122 -7z"/>
<path d="M3385 3373 c-6 -2 -10 -108 -10 -280 l1 -278 842 -3 842 -2 0 282 0
283 -833 1 c-458 0 -837 -1 -842 -3z"/>
</g>
</svg>
