<?xml version="1.0" encoding="utf-8"?>
<!-- Generator: Adobe Illustrator 24.0.2, SVG Export Plug-In . SVG Version: 6.00 Build 0)  -->
<svg version="1.1" id="Capa_1" xmlns="http://www.w3.org/2000/svg" xmlns:xlink="http://www.w3.org/1999/xlink" x="0px" y="0px"
	 viewBox="0 0 612 792" style="enable-background:new 0 0 612 792;" xml:space="preserve">
<style type="text/css">
	.st0{fill:#FDFEFE;}
	.st1{fill:#228AE5;}
</style>
<g>
	<g>
		<path class="st0" d="M-20.67,335.02c0-102.6,0.25-205.19-0.32-307.78C-21.06,14.86-18.24,11.97-5.77,12
			c203.84,0.45,407.68,0.45,611.51,0.01c12.38-0.03,15.28,2.73,15.26,15.19c-0.45,205.19-0.45,410.38-0.01,615.57
			c0.03,12.37-2.74,15.26-15.21,15.23c-203.84-0.45-407.68-0.45-611.51-0.01c-12.38,0.03-15.34-2.73-15.27-15.19
			C-20.41,540.21-20.67,437.61-20.67,335.02z M405.8,327.36c0.07,1.58,0.14,3.17,0.21,4.75c-2.73,0.77-5.42,1.9-8.2,2.27
			c-113.11,15.08-226.17,30.63-339.43,44.57c-18.59,2.29-23.17,8.83-22.79,26.26c1.05,47.11,0.34,94.26,0.36,141.39
			c0.01,28.26,0.16,28.52,25.1,17.43c124.18-55.21,251.44-103.32,373.33-163.9c50.62-25.16,103.81-45.18,161.65-70.05
			c-31.83-13.69-57.98-24.97-84.15-36.19C360.05,228.82,208.22,163.69,56.26,98.88c-7.8-3.32-20.58-15.51-20.41,7.45
			c0.39,52.09,0.4,104.19-0.05,156.28c-0.11,13.25,6.3,16.32,17.98,17.79c77.12,9.71,154.17,19.98,231.22,30.25
			C325.29,316.02,365.53,321.78,405.8,327.36z"/>
		<path class="st1" d="M405.8,327.36c-40.27-5.58-80.51-11.34-120.81-16.71c-77.05-10.27-154.1-20.54-231.22-30.25
			c-11.68-1.47-18.1-4.54-17.98-17.79c0.45-52.09,0.44-104.19,0.05-156.28c-0.17-22.96,12.61-10.77,20.41-7.45
			C208.22,163.69,360.05,228.82,511.9,293.9c26.17,11.22,52.32,22.5,84.15,36.19c-57.84,24.86-111.02,44.89-161.65,70.05
			c-121.89,60.58-249.15,108.69-373.33,163.9c-24.94,11.09-25.09,10.83-25.1-17.43c-0.02-47.13,0.68-94.28-0.36-141.39
			c-0.39-17.43,4.19-23.97,22.79-26.26c113.25-13.95,226.31-29.5,339.43-44.57c2.79-0.37,5.47-1.49,8.2-2.27
			C405.94,330.53,405.87,328.95,405.8,327.36z"/>
	</g>
</g>
</svg>
